<?xml version="1.0" encoding="UTF-8"?>
<svg version="1.1" xmlns="http://www.w3.org/2000/svg" width="512" height="512">
<path d="M0 0 C3.53537971 2.81597105 6.79684004 5.81384797 10 9 C10.55300781 9.51820312 11.10601562 10.03640625 11.67578125 10.5703125 C15.46152465 14.46830166 17.84229366 19.14784336 20.3125 23.9375 C20.6626416 24.60595947 21.0127832 25.27441895 21.37353516 25.96313477 C23.70934798 30.68719233 24.59483678 34.74462196 25 40 C26.0725 39.95875 27.145 39.9175 28.25 39.875 C31.65712165 39.98857072 33.26226767 40.10464685 36 42 C37.59051299 45.18102598 37.39740378 48.5369099 37 52 C35.62211751 54.13571786 34.74257498 54.74295481 32.375 55.5625 C29.00376695 56.18351661 25.66359647 56.104444 22.25 56.0625 C21.55261719 56.05798828 20.85523438 56.05347656 20.13671875 56.04882812 C18.42444197 56.0371002 16.71220967 56.01916653 15 56 C15.06380859 57.49273437 15.06380859 57.49273437 15.12890625 59.015625 C14.70059461 72.25434843 8.19523069 85.35355536 -1.3125 94.375 C-8.29814407 100.19239642 -17.67384285 105.54859748 -27 105 C-27.268125 105.94875 -27.53625 106.8975 -27.8125 107.875 C-29 111 -29 111 -32 113 C-32.99 113 -33.98 113 -35 113 C-34.83242188 113.6084375 -34.66484375 114.216875 -34.4921875 114.84375 C-32.21126273 124.66038826 -33.48688527 134.3152816 -36 144 C-34.80515991 144.00546844 -34.80515991 144.00546844 -33.58618164 144.01104736 C-26.05373758 144.04902359 -18.52178286 144.10598443 -10.98965454 144.18390274 C-7.11792384 144.22329528 -3.24641776 144.25552363 0.62548828 144.27099609 C4.36700741 144.28621752 8.10790865 144.32075837 11.84915161 144.36830902 C13.27152108 144.38306672 14.69397879 144.39103778 16.11642456 144.39188385 C24.20464865 144.40152705 30.07210807 144.68463943 37 149 C37.99 149.33 38.98 149.66 40 150 C41.11375 149.401875 42.2275 148.80375 43.375 148.1875 C52.93518805 143.14572199 64.47342651 143.63457584 75 144 C76.14082031 144.02964844 77.28164063 144.05929688 78.45703125 144.08984375 C87.4917969 144.52107238 95.42265273 146.42265273 102 153 C108.23887623 161.31243859 110.03964553 169.6956652 109 180 C107.10372997 187.89166271 102.81030155 194.89802984 95.91015625 199.34765625 C91.13383781 201.82920717 86.86159651 203.13419998 81.453125 203.09765625 C80.31085449 203.09390991 80.31085449 203.09390991 79.14550781 203.09008789 C78.18999023 203.08098389 77.23447266 203.07187988 76.25 203.0625 C74.64801289 203.05113147 73.04602286 203.04016925 71.44403076 203.02952576 C70.61164257 203.02397391 69.77925438 203.01842207 68.9216423 203.01270199 C68.28750034 203.00851033 67.65335838 203.00431868 67 203 C67.07807325 203.70879334 67.15614651 204.41758669 67.23658562 205.14785862 C69.0285099 221.47910683 70.68067342 237.81463353 72.13858414 254.17916679 C72.45599098 257.74092139 72.77657874 261.30237859 73.09786987 264.86378479 C73.89215342 273.6745326 74.68160767 282.48571135 75.47058105 291.29693604 C76.14464865 298.8234698 76.82086096 306.34980441 77.50011826 313.87587166 C77.81523863 317.37721723 78.12716842 320.87883772 78.43899536 324.38047791 C78.63120328 326.51335103 78.82356724 328.64621011 79.01611328 330.77905273 C79.10131226 331.74566833 79.18651123 332.71228394 79.27429199 333.70819092 C79.35547272 334.60015671 79.43665344 335.4921225 79.52029419 336.41111755 C79.58921938 337.18131949 79.65814457 337.95152143 79.7291584 338.74506283 C80.02371762 341.19746506 80.48705068 343.58465449 81 346 C81.94359375 346.20753906 82.8871875 346.41507812 83.859375 346.62890625 C100.66626092 350.56496056 113.49208216 358.86564688 122.94921875 373.4453125 C128.17233111 382.06021192 131.0607716 392.06435682 131.25 402.125 C131.27578125 402.95257813 131.3015625 403.78015625 131.328125 404.6328125 C130.92385293 407.54934675 130.0118951 408.87871108 128 411 C125.3125 411.75 125.3125 411.75 123 412 C122.979375 413.03125 122.95875 414.0625 122.9375 415.125 C121.36816902 427.24969413 112.96999728 438.24975224 103.8125 445.8046875 C91.58715428 454.58073925 76.50880809 456.81793362 61.859375 454.50390625 C48.52610026 451.13249249 36.96054427 443.83314385 29.5625 432 C26.00979292 425.46095943 23 419.51470939 23 412 C-26.83 412 -76.66 412 -128 412 C-128.33 414.64 -128.66 417.28 -129 420 C-134.70406023 435.17687454 -144.31635216 445.24908363 -159 452 C-172.25402546 457.0018368 -186.93683703 456.38896102 -199.875 450.74609375 C-213.65103941 443.72414033 -222.24221142 433.27680412 -227.25390625 418.69921875 C-227.98842911 416.04186116 -228.38256613 413.47891893 -228.75 410.75 C-229.64027817 405.66498776 -232.00645289 403.78188452 -235.96875 400.6953125 C-242.21110444 395.48534745 -244.64566072 387.7928252 -246 380 C-246.20598138 376.64608584 -246.19640629 373.35345551 -246 370 C-246.66 369.814375 -247.32 369.62875 -248 369.4375 C-253.54726617 366.77943496 -257.77878384 362.98447626 -261 357.75 C-263.09052916 349.91051566 -262.72419824 342.73855891 -259.40625 335.296875 C-256.37504135 330.34590087 -251.48062024 326.028791 -246 324 C-243.41440438 323.83454432 -240.95449288 323.76555521 -238.375 323.8125 C-237.3540625 323.8134668 -237.3540625 323.8134668 -236.3125 323.81445312 C-231.28161154 323.85919423 -231.28161154 323.85919423 -229 325 C-228.92007813 324.2265625 -228.84015625 323.453125 -228.7578125 322.65625 C-227.52962335 316.73055392 -225.03088359 311.27180113 -222.70703125 305.69921875 C-219.96054186 299.00687239 -219.96054186 299.00687239 -221 292 C-222.29395411 289.62947283 -222.29395411 289.62947283 -223.9375 287.5 C-228.34609576 281.16726891 -229.07719204 276.54166218 -229 269 C-229.74280212 268.99191315 -230.48560425 268.98382629 -231.25091553 268.97549438 C-238.25470437 268.89751982 -245.2583006 268.81022058 -252.26183701 268.71247292 C-255.86234441 268.66254924 -259.46282303 268.61621905 -263.06347656 268.578125 C-266.53899166 268.54122226 -270.01426368 268.49484914 -273.48957062 268.44193649 C-275.45925455 268.41441352 -277.42906728 268.39667292 -279.39886475 268.37905884 C-280.59980774 268.35918915 -281.80075073 268.33931946 -283.03808594 268.31884766 C-284.09509705 268.30552399 -285.15210815 268.29220032 -286.2411499 268.2784729 C-289.01765843 267.99821759 -290.67712963 267.51900637 -293 266 C-294.58910767 262.82178465 -294.40420974 259.46060271 -294 256 C-292.18836733 253.32568511 -291.12238923 253.04079641 -288 252 C-285.42734182 251.92970879 -282.88358569 251.90629168 -280.3125 251.9375 C-279.61060547 251.94201172 -278.90871094 251.94652344 -278.18554688 251.95117188 C-276.45699462 251.96293073 -274.72848635 251.98086546 -273 252 C-273.00666183 251.08180481 -273.01332367 250.16360962 -273.02018738 249.21759033 C-273.08029082 240.56577144 -273.12597054 231.91402264 -273.15543652 223.262043 C-273.17109453 218.81392768 -273.19233521 214.36598481 -273.22631836 209.91796875 C-273.25890708 205.62562107 -273.27685199 201.33343932 -273.28463173 197.04097748 C-273.29017613 195.40309792 -273.30100298 193.76522747 -273.31719017 192.12741852 C-273.33895838 189.83376927 -273.34196725 187.54080619 -273.34057617 185.24707031 C-273.34723801 183.94135071 -273.35389984 182.6356311 -273.36076355 181.29034424 C-272.97826338 177.80175116 -272.49915538 176.41417719 -270 174 C-266.13777021 172.71259007 -262.48621112 172.85252396 -258.46118164 172.85473633 C-257.15343025 172.84969841 -257.15343025 172.84969841 -255.81925964 172.84455872 C-252.93287741 172.83504787 -250.04655318 172.83310559 -247.16015625 172.83203125 C-245.15620398 172.82881897 -243.15225194 172.82545492 -241.14830017 172.82194519 C-236.94594784 172.81595373 -232.74361607 172.81410533 -228.54125977 172.81469727 C-223.15302475 172.81479894 -217.76492137 172.80114171 -212.37671757 172.78392506 C-208.23749687 172.77281437 -204.0983081 172.77077776 -199.95907402 172.77130699 C-197.97233056 172.77012566 -195.98558631 172.76569535 -193.9988575 172.75797462 C-191.22188174 172.74819277 -188.44519314 172.75104557 -185.66821289 172.75708008 C-184.43450455 172.74865082 -184.43450455 172.74865082 -183.1758728 172.74005127 C-175.84564344 172.78059064 -175.84564344 172.78059064 -173 175 C-170.45152401 178.45993612 -170.75854201 181.97718157 -170.77294922 186.15527344 C-170.77265717 186.86786819 -170.77236511 187.58046295 -170.77206421 188.31465149 C-170.77345423 190.66301781 -170.78899978 193.01106431 -170.8046875 195.359375 C-170.8084188 196.99033434 -170.81126522 198.62129592 -170.81326294 200.2522583 C-170.8208902 204.53979711 -170.84053088 208.8271999 -170.8626709 213.11468506 C-170.88314888 217.49180257 -170.89226883 221.86894212 -170.90234375 226.24609375 C-170.92377767 234.83079847 -170.95895239 243.41536663 -171 252 C-162.42 251.67 -153.84 251.34 -145 251 C-146.65 249.02 -148.3 247.04 -150 245 C-151.73046875 242.140625 -151.73046875 242.140625 -153.1875 239.25 C-153.67605469 238.30640625 -154.16460937 237.3628125 -154.66796875 236.390625 C-158.12953841 227.57935678 -158.35698698 218.75285462 -158.3125 209.375 C-158.30686035 208.13459961 -158.3012207 206.89419922 -158.29541016 205.61621094 C-157.77059382 165.88605555 -134.81611964 134.96591177 -107.3984375 108.19921875 C-103.57398142 104.54447426 -99.56788592 101.18787827 -95.4140625 97.91015625 C-93.18890985 96.14947721 -91.05984251 94.31965971 -88.9375 92.4375 C-86 90 -86 90 -84 90 C-84.45890625 89.32195312 -84.9178125 88.64390625 -85.390625 87.9453125 C-95.68301731 72.33374264 -99.02732437 56.78003499 -95.61694336 38.36962891 C-92.87971145 25.67654595 -86.35330943 14.92289165 -77 6 C-76.36449219 5.35675781 -75.72898437 4.71351562 -75.07421875 4.05078125 C-55.44938864 -14.68016426 -21.8121505 -15.0291037 0 0 Z M-55 189 C-57.64 193.95 -60.28 198.9 -63 204 C-60.01646484 204.36351562 -60.01646484 204.36351562 -56.97265625 204.734375 C-55.01639143 204.98499967 -53.06013868 205.23572952 -51.10424805 205.48925781 C-49.10391484 205.7447111 -47.10176281 205.98579097 -45.09960938 206.2265625 C-37.78783886 207.18427551 -31.46731961 208.37968227 -25 212 C-23.80310547 212.66902344 -23.80310547 212.66902344 -22.58203125 213.3515625 C-14.54515888 219.13527198 -10.77766563 226.97559008 -8.53295898 236.44873047 C-7.49169144 243.38701618 -8.17649846 250.28920365 -8.6875 257.25 C-8.792619 258.87391008 -8.8959443 260.49793717 -8.99755859 262.12207031 C-9.2083933 265.44412822 -9.42962484 268.76522258 -9.66064453 272.0859375 C-10.13819801 278.9521442 -10.56532966 285.82141703 -10.99429321 292.6907959 C-11.12162415 294.69681555 -11.25542636 296.70242114 -11.3894043 298.70800781 C-13.05450398 314.69885356 -13.05450398 314.69885356 -6.6875 328.75 C-3.88881537 331.0930848 -1.08807551 333.06097585 2 335 C10.06028816 327.16360873 16.92198724 318.07455114 17.26329041 306.39257812 C17.2710618 304.60547619 17.26442312 302.81827231 17.24584961 301.03125 C17.23706866 299.58111511 17.23706866 299.58111511 17.22811031 298.10168457 C17.09071461 287.51133501 16.12841906 277.03069678 15.06640625 266.5 C14.8661582 264.4383973 14.6667901 262.37670895 14.46824646 260.31494141 C13.95035106 254.96376304 13.41960584 249.61393656 12.88623047 244.26428223 C12.45180904 239.88386616 12.02695622 235.50254547 11.60249424 231.12115479 C11.09374065 225.87211554 10.5806254 220.62350631 10.06640625 215.375 C9.969415 214.38346924 9.87242374 213.39193848 9.77249336 212.37036133 C9.4972432 209.56698142 9.21901288 206.76391493 8.93969727 203.9609375 C8.81885521 202.72668533 8.81885521 202.72668533 8.6955719 201.46749878 C8.57991882 200.31642136 8.57991882 200.31642136 8.46192932 199.14208984 C8.36375837 198.15346451 8.36375837 198.15346451 8.26360416 197.14486694 C7.92846602 194.41794978 7.4516754 191.71005242 7 189 C-13.46 189 -33.92 189 -55 189 Z M-65 291 C-68.58071724 294.53606989 -71.71016471 297.79074532 -72.3828125 302.91796875 C-71.49218589 316.68705617 -64.94455059 326.23612913 -55.515625 335.75 C-54.07027493 337.21208821 -54.07027493 337.21208821 -52 337 C-54.29725602 326.08446674 -56.8766716 315.24835495 -59.625 304.4375 C-60.07661499 302.62608521 -60.07661499 302.62608521 -60.53735352 300.77807617 C-60.97132446 299.09161987 -60.97132446 299.09161987 -61.4140625 297.37109375 C-61.6713916 296.35974365 -61.9287207 295.34839355 -62.19384766 294.30639648 C-62.75875227 291.83030033 -62.75875227 291.83030033 -65 291 Z " fill="#010101" transform="translate(363,39)"/>
<path d="M0 0 C1.4296875 1.609375 1.4296875 1.609375 2.875 3.75 C5.64941498 7.61242086 8.25132261 11.08957515 12.94188881 12.64319801 C15.35157621 13.50100851 17.04339402 14.33937574 19 16 C20.44284629 19.73268151 20.59530977 23.48406154 20.83349609 27.45458984 C20.98363946 29.18404878 20.98363946 29.18404878 21.13681602 30.94844627 C21.34698943 33.39659011 21.54142848 35.84612816 21.72130585 38.29668427 C21.98898731 41.85366222 22.31066433 45.40040321 22.65704346 48.95050049 C23.364933 56.20584911 24.01614622 63.46564816 24.6640625 70.7265625 C24.90368085 73.38311673 25.14358246 76.03964381 25.38388062 78.69613647 C25.94462267 84.90102255 26.5023637 91.1061738 27.05872381 97.31145418 C28.05822688 108.45855375 29.06225236 119.60524596 30.06856 130.75173318 C30.47647128 135.27170582 30.88181808 139.79190419 31.28652954 144.31216431 C31.49906879 146.67377216 31.7116615 149.03537521 31.92431641 151.39697266 C32.01886612 152.45880264 32.11341583 153.52063263 32.21083069 154.61463928 C32.45737941 164.19728732 32.45737941 164.19728732 35.2578125 172.9765625 C37.55821349 174.32791914 39.21232608 174.33549445 41.875 174.375 C54.60378767 175.23482539 64.55559449 181.18657251 73.1875 190.1875 C78.38819859 196.24985279 82.17573803 202.90591169 82 211 C40.1302196 211.13736009 -1.73953478 211.24307165 -43.6094959 211.30639198 C-48.55362915 211.31389614 -53.49776195 211.32166208 -58.44189453 211.32958984 C-59.4261743 211.33116371 -60.41045407 211.33273757 -61.4245605 211.33435912 C-77.3578616 211.36046061 -93.29103269 211.40776457 -109.22425668 211.46291678 C-125.57557629 211.51904378 -141.92682786 211.55235648 -158.27823985 211.56453097 C-168.36643037 211.57276001 -178.45425342 211.59874195 -188.54233082 211.6474988 C-195.46193374 211.67923664 -202.38134692 211.68879559 -209.30101733 211.68100826 C-213.29228335 211.67716858 -217.28290764 211.68301651 -221.2740593 211.71523285 C-224.93259169 211.74454787 -228.59005418 211.74583238 -232.24863704 211.72539337 C-234.18984313 211.72167927 -236.13103763 211.74745483 -238.07205904 211.77448785 C-246.05954653 211.69289189 -251.80983898 210.23937204 -258 205 C-262.46794048 199.40433419 -264.44119762 194.20888508 -264.35296631 187.04223633 C-263.62464452 180.76479015 -261.0863289 174.95021079 -258.8203125 169.09375 C-258.28573503 167.67842168 -257.75246232 166.26259992 -257.22042847 164.84631348 C-256.10891955 161.89754173 -254.98684947 158.95311003 -253.85595703 156.01171875 C-252.40603588 152.24008193 -250.97556602 148.46144649 -249.55189705 144.67983246 C-248.45353218 141.76469589 -247.34898293 138.8519381 -246.24212265 135.9400177 C-245.71244083 134.54651777 -245.18378114 133.15262888 -244.65616226 131.75834656 C-243.91987109 129.81777509 -243.17624252 127.88019004 -242.43017578 125.94335938 C-242.00825958 124.84100952 -241.58634338 123.73865967 -241.15164185 122.60290527 C-240 120 -240 120 -238 118 C-237.31879089 118.35445694 -236.63758179 118.70891388 -235.93572998 119.07411194 C-225.02264738 124.05112709 -214.61551236 123.67685588 -202.828125 123.55859375 C-200.69350474 123.55433459 -198.55887982 123.55201406 -196.42425537 123.55152893 C-191.97288696 123.54539508 -187.52202796 123.52284366 -183.07080078 123.48706055 C-177.38287355 123.44168113 -171.69540436 123.42702627 -166.00731277 123.42332363 C-161.6079462 123.41888359 -157.20867436 123.40356127 -152.80934906 123.3844471 C-150.7123161 123.37560997 -148.61527322 123.36885832 -146.51822662 123.36428642 C-143.58522267 123.35518396 -140.6526202 123.33274428 -137.71972656 123.30639648 C-136.86548599 123.30573181 -136.01124542 123.30506714 -135.13111877 123.30438232 C-129.53222267 123.23541145 -124.41451591 122.4200792 -119 121 C-118.82984375 121.82242188 -118.6596875 122.64484375 -118.484375 123.4921875 C-114.73805273 140.74918265 -107.90433475 154.05374368 -92.91015625 164.0625 C-79.05178999 172.74636 -64.12520858 175.981992 -47.875 173.3125 C-33.87807204 169.97336359 -20.15122769 162.14692754 -12 150 C0.46556888 127.5211053 -1.48666211 107.17722922 -3.96875 82.29296875 C-4.17145448 80.18606773 -4.37321772 78.07907597 -4.57409668 75.97200012 C-5.09864435 70.49144998 -5.63383497 65.01199791 -6.17205811 59.53277588 C-7.03586861 50.72120131 -7.88361428 41.90807058 -8.73036194 33.09484291 C-9.02596846 30.03513595 -9.32650667 26.97594463 -9.62780762 23.91679382 C-9.80992866 22.04113861 -9.99194136 20.16547287 -10.17382812 18.28979492 C-10.25798477 17.44871185 -10.34214142 16.60762878 -10.42884827 15.74105835 C-10.87125502 11.13469187 -11.08185029 6.62766184 -11 2 C-3.375 0 -3.375 0 0 0 Z " fill="#EE5F68" transform="translate(396,225)"/>
<path d="M0 0 C3.64207546 3.08741076 7.05487528 6.37131537 10.43261719 9.74414062 C11.10164062 10.4015625 11.77066406 11.05898438 12.45996094 11.73632812 C27.87265352 28.02275612 33.15016836 50.35560656 32.74121094 72.12304688 C32.03447599 89.41605921 25.71482562 104.61671119 14.43261719 117.74414062 C13.96339844 118.34484375 13.49417969 118.94554687 13.01074219 119.56445312 C7.45448442 126.52538279 0.04883574 132.17440949 -7.56738281 136.74414062 C-8.22738281 136.74414062 -8.88738281 136.74414062 -9.56738281 136.74414062 C-9.54381714 137.97716919 -9.54381714 137.97716919 -9.51977539 139.23510742 C-9.45733208 142.96721491 -9.41836145 146.69921235 -9.37988281 150.43164062 C-9.35474609 151.72521484 -9.32960937 153.01878906 -9.30371094 154.3515625 C-9.28920898 156.22231445 -9.28920898 156.22231445 -9.27441406 158.13085938 C-9.25870361 159.27772217 -9.24299316 160.42458496 -9.22680664 161.60620117 C-9.60562815 165.0965186 -10.47896379 166.95059061 -12.56738281 169.74414062 C-15.45073862 171.18581853 -17.35785065 171.06930181 -20.56738281 170.74414062 C-22.91695505 169.38850508 -24.88230975 168.07635213 -27.00488281 166.43164062 C-27.60905029 165.98957275 -28.21321777 165.54750488 -28.83569336 165.09204102 C-32.05842108 162.72096008 -35.16717291 160.25662715 -38.21582031 157.66601562 C-46.31354803 150.96198141 -51.80409461 148.75332569 -62.29394531 148.82617188 C-82.57156399 148.88627426 -102.76566987 137.00010494 -117.04003906 123.39648438 C-133.17217949 106.46646374 -141.12606873 85.49300368 -140.78222656 62.26757812 C-140.03224566 40.38304227 -129.69817773 21.91810472 -114.56738281 6.74414062 C-113.8596875 6.01324219 -113.15199219 5.28234375 -112.42285156 4.52929688 C-101.99937017 -5.53544138 -88.38551488 -11.51443112 -74.56738281 -15.25585938 C-73.67148438 -15.50078125 -72.77558594 -15.74570312 -71.85253906 -15.99804688 C-47.93834254 -21.3778199 -19.18756021 -15.3739579 0 0 Z " fill="#EE5E67" transform="translate(158.5673828125,35.255859375)"/>
<path d="M0 0 C3.64207546 3.08741076 7.05487528 6.37131537 10.43261719 9.74414062 C11.10164062 10.4015625 11.77066406 11.05898438 12.45996094 11.73632812 C27.87265352 28.02275612 33.15016836 50.35560656 32.74121094 72.12304688 C32.03447599 89.41605921 25.71482562 104.61671119 14.43261719 117.74414062 C13.96339844 118.34484375 13.49417969 118.94554687 13.01074219 119.56445312 C7.45448442 126.52538279 0.04883574 132.17440949 -7.56738281 136.74414062 C-8.22738281 136.74414062 -8.88738281 136.74414062 -9.56738281 136.74414062 C-9.54381714 137.97716919 -9.54381714 137.97716919 -9.51977539 139.23510742 C-9.45733208 142.96721491 -9.41836145 146.69921235 -9.37988281 150.43164062 C-9.35474609 151.72521484 -9.32960937 153.01878906 -9.30371094 154.3515625 C-9.28920898 156.22231445 -9.28920898 156.22231445 -9.27441406 158.13085938 C-9.25870361 159.27772217 -9.24299316 160.42458496 -9.22680664 161.60620117 C-9.60562815 165.0965186 -10.47896379 166.95059061 -12.56738281 169.74414062 C-15.45073862 171.18581853 -17.35785065 171.06930181 -20.56738281 170.74414062 C-22.91695505 169.38850508 -24.88230975 168.07635213 -27.00488281 166.43164062 C-27.60905029 165.98957275 -28.21321777 165.54750488 -28.83569336 165.09204102 C-32.05842108 162.72096008 -35.16717291 160.25662715 -38.21582031 157.66601562 C-46.31354803 150.96198141 -51.80409461 148.75332569 -62.29394531 148.82617188 C-82.57156399 148.88627426 -102.76566987 137.00010494 -117.04003906 123.39648438 C-133.17217949 106.46646374 -141.12606873 85.49300368 -140.78222656 62.26757812 C-140.03224566 40.38304227 -129.69817773 21.91810472 -114.56738281 6.74414062 C-113.8596875 6.01324219 -113.15199219 5.28234375 -112.42285156 4.52929688 C-101.99937017 -5.53544138 -88.38551488 -11.51443112 -74.56738281 -15.25585938 C-73.67148438 -15.50078125 -72.77558594 -15.74570312 -71.85253906 -15.99804688 C-47.93834254 -21.3778199 -19.18756021 -15.3739579 0 0 Z M-108.43847656 21.16601562 C-122.05173932 37.65180171 -126.85311147 54.63563408 -125.56738281 75.74414062 C-123.83365055 89.73415841 -115.42313721 103.08586036 -105.56738281 112.74414062 C-104.70693359 113.69160156 -104.70693359 113.69160156 -103.82910156 114.65820312 C-94.72727013 124.52033074 -80.83405423 131.69612975 -67.56738281 133.74414062 C-65.85242559 133.7611404 -64.13661122 133.73231102 -62.42285156 133.66601562 C-46.95892993 133.10139065 -38.50080156 137.17417959 -27.06005859 147.47485352 C-25.76697782 148.85210734 -25.76697782 148.85210734 -24.56738281 148.74414062 C-24.55280029 148.18428467 -24.53821777 147.62442871 -24.52319336 147.04760742 C-24.4486693 144.50825925 -24.352027 141.97021985 -24.25488281 139.43164062 C-24.23232422 138.55056641 -24.20976562 137.66949219 -24.18652344 136.76171875 C-24.13334961 135.49038086 -24.13334961 135.49038086 -24.07910156 134.19335938 C-24.05291748 133.41307373 -24.0267334 132.63278809 -23.99975586 131.82885742 C-23.46437667 129.24748934 -22.58694288 128.39026223 -20.56738281 126.74414062 C-18.89878239 125.67246049 -17.20862163 124.63402965 -15.50488281 123.61914062 C-9.57979181 119.901283 -4.55670243 115.63058767 0.43261719 110.74414062 C1.05910156 110.15375 1.68558594 109.56335938 2.33105469 108.95507812 C6.40977964 104.76561855 9.09182094 100.02979583 11.74511719 94.86914062 C12.25196045 93.89738892 12.25196045 93.89738892 12.76904297 92.90600586 C19.53850936 79.10143578 19.93247836 60.0841591 15.37011719 45.55664062 C7.9095635 26.77017675 -4.52942389 12.64382713 -22.85253906 3.87304688 C-52.59130312 -8.49314422 -86.03846859 -2.43030953 -108.43847656 21.16601562 Z " fill="#010000" transform="translate(158.5673828125,35.255859375)"/>
<path d="M0 0 C1.25574829 0.00737183 1.25574829 0.00737183 2.53686523 0.01489258 C16.8980133 0.28476093 29.003944 4.7938337 39.484375 14.73046875 C48.12317723 24.31142223 52.3366627 35.69170861 51.91796875 48.51171875 C51.86576172 49.40310547 51.86576172 49.40310547 51.8125 50.3125 C52.988125 50.498125 52.988125 50.498125 54.1875 50.6875 C56.8125 51.3125 56.8125 51.3125 58.8125 53.3125 C59.25770706 57.31936356 59.44676635 59.45952112 57 62.75 C54.8125 64.3125 54.8125 64.3125 51.8125 64.3125 C51.86470703 65.39917969 51.86470703 65.39917969 51.91796875 66.5078125 C52.19846258 76.52544945 52.19846258 76.52544945 48.8125 81.3125 C43.81816448 85.93226036 39.89204071 86.4648887 33.31518555 86.48950195 C32.55385315 86.49607315 31.79252075 86.50264435 31.00811768 86.50941467 C28.48848368 86.52912593 25.96890921 86.54080513 23.44921875 86.55078125 C22.1572203 86.55689454 22.1572203 86.55689454 20.83912086 86.56313133 C16.28052638 86.58398237 11.72196192 86.59828851 7.16333008 86.60766602 C2.4589449 86.6187311 -2.24496737 86.65313471 -6.94918537 86.69283772 C-10.57035696 86.71900129 -14.19141578 86.72735759 -17.81267357 86.73094749 C-19.54659407 86.73581379 -21.28050951 86.74742905 -23.01433754 86.76598549 C-25.44393888 86.79037312 -27.8723153 86.78941312 -30.30200195 86.7824707 C-31.01442551 86.79528076 -31.72684906 86.80809082 -32.46086121 86.82128906 C-37.49614721 86.76899696 -40.29102358 85.43320513 -44.1875 82.3125 C-47.9938319 78.30583485 -48.42492165 75.2832972 -48.4375 69.9375 C-48.3736054 68.06173698 -48.29664609 66.18617462 -48.1875 64.3125 C-48.97125 64.18875 -49.755 64.065 -50.5625 63.9375 C-53.1875 63.3125 -53.1875 63.3125 -55.1875 61.3125 C-55.75088028 54.21390845 -55.75088028 54.21390845 -53.9375 51.3125 C-52.1875 50.3125 -52.1875 50.3125 -48.1875 50.3125 C-48.23390625 49.66925781 -48.2803125 49.02601562 -48.328125 48.36328125 C-48.81799822 36.09895529 -45.22001705 25.60408222 -37.1875 16.3125 C-27.29468725 5.67772629 -14.48631575 -0.10060954 0 0 Z " fill="#040201" transform="translate(103.1875,54.6875)"/>
<path d="M0 0 C8.06819125 -0.23816549 15.91223409 0.50804071 23.921875 1.42578125 C25.27055105 1.57606193 26.61928719 1.72580415 27.96807861 1.87504578 C31.51457746 2.26867958 35.06034584 2.66852689 38.60595703 3.07006836 C44.18473834 3.7008734 49.76459705 4.32205692 55.34443665 4.9434166 C57.42041664 5.17561813 59.49604833 5.4107603 61.57165527 5.64627075 C68.53749907 6.43136038 75.50264434 7.15159472 82.48632812 7.75927734 C83.8607979 7.8825337 85.23524892 8.00599932 86.60968018 8.12968445 C89.17908735 8.35680307 91.74969409 8.57088517 94.32147217 8.7693634 C102.17630129 9.47196046 108.26536765 10.60487968 114.27734375 16.0703125 C114.82519531 16.74835938 115.37304688 17.42640625 115.9375 18.125 C116.50339844 18.80820312 117.06929688 19.49140625 117.65234375 20.1953125 C121.34202064 25.13627112 120.19046457 31.19140882 120.1875 37.125 C120.1882251 37.78737671 120.1889502 38.44975342 120.18969727 39.13220215 C120.18845324 49.54036914 119.72888591 59.8696538 119 70.25 C118.30728654 80.29106682 117.74133923 90.30874833 117.625 100.375 C117.59921875 101.40786133 117.5734375 102.44072266 117.546875 103.50488281 C117.52428723 112.05152974 119.61545928 119.6831695 125.0625 126.4375 C125.54847656 127.05496094 126.03445313 127.67242187 126.53515625 128.30859375 C127.95775276 129.95121852 129.44092693 131.48719022 131 133 C123.14308261 137.01719185 110.43490817 136.56115983 102.125 133.984375 C97.79066616 132.22089604 94.07991412 130.59060195 91 127 C90.17694092 124.92654419 90.17694092 124.92654419 89.54199219 122.51611328 C89.29874207 121.61152374 89.05549194 120.7069342 88.80487061 119.77493286 C88.55473206 118.79990814 88.30459351 117.82488342 88.046875 116.8203125 C87.78239563 115.81539764 87.51791626 114.81048279 87.24542236 113.77511597 C86.68909006 111.64975176 86.13801125 109.52300649 85.59179688 107.39501953 C84.75399685 104.14052605 83.89383839 100.89253102 83.03125 97.64453125 C82.49343255 95.57847832 81.95693018 93.51208251 81.421875 91.4453125 C81.16363953 90.47433624 80.90540405 89.50335999 80.63934326 88.50296021 C80.40870178 87.59206635 80.1780603 86.68117249 79.94042969 85.74267578 C79.73407898 84.9456424 79.52772827 84.14860901 79.31512451 83.3274231 C78.63767241 78.3239479 80.44233024 75.15621336 83 71 C84.76372014 65.30744122 85.22818199 58.99114432 82.94140625 53.421875 C79.59421194 47.94299867 75.99371339 45.23030739 70 43 C66.87451647 42.50026955 63.83135109 42.51056085 60.671875 42.56640625 C58.88411374 42.55679652 57.09635334 42.54702581 55.30859375 42.53710938 C52.53326173 42.54567068 49.75816505 42.56243444 46.98291016 42.5847168 C31.97284725 42.66616261 20.52039136 41.44093242 9.19921875 30.5390625 C2.67757072 23.00962872 -0.17090368 15.55223523 -0.0625 5.6875 C-0.05347656 4.61886719 -0.04445312 3.55023438 -0.03515625 2.44921875 C-0.02355469 1.64097656 -0.01195312 0.83273438 0 0 Z " fill="#DE905A" transform="translate(220,250)"/>
<path d="M0 0 C0.63808594 0.3196875 1.27617187 0.639375 1.93359375 0.96875 C3.21363281 1.59716797 3.21363281 1.59716797 4.51953125 2.23828125 C7.33541837 3.79608995 10.13828427 5.37432819 12.93359375 6.96875 C14.06796875 7.5875 15.20234375 8.20625 16.37109375 8.84375 C21.04212308 12.71728652 22.65063299 16.40477905 23.31640625 22.4375 C23.57128814 30.79762604 22.31904788 37.36567298 18.93359375 44.96875 C18.31315186 44.98333252 17.69270996 44.99791504 17.0534668 45.01293945 C14.24204742 45.08741588 11.43181626 45.18407564 8.62109375 45.28125 C7.64462891 45.30380859 6.66816406 45.32636719 5.66210938 45.34960938 C4.72431641 45.38505859 3.78652344 45.42050781 2.8203125 45.45703125 C1.52420044 45.49630737 1.52420044 45.49630737 0.2019043 45.53637695 C-2.51932785 46.05508346 -3.44069916 46.75199557 -5.06640625 48.96875 C-5.49119211 53.04669425 -5.37923212 54.49951119 -3.06640625 57.96875 C0.07646215 58.26344569 3.02406763 58.36430581 6.16918945 58.33764648 C7.12705353 58.34141296 8.0849176 58.34517944 9.07180786 58.34906006 C11.15673658 58.35550766 13.24169467 58.35514839 15.32662392 58.34887505 C18.62584298 58.33979844 21.92448959 58.34995012 25.22367859 58.36549377 C34.60540829 58.4056859 43.98709506 58.40679626 53.36889648 58.40454102 C59.10308347 58.40448995 64.8369631 58.4236452 70.5710659 58.45387459 C73.82234236 58.46472022 77.07303706 58.45255522 80.32429504 58.44004822 C82.31947406 58.44895221 84.31464832 58.45902644 86.30981445 58.47045898 C87.2144191 58.46071548 88.11902374 58.45097198 89.05104065 58.44093323 C93.15346216 58.48787587 95.39916761 58.65246774 98.99601746 60.78114319 C100.93359375 62.96875 100.93359375 62.96875 101.55859375 66.46875 C100.93359375 69.96875 100.93359375 69.96875 99.07633972 72.15536499 C94.44335677 74.8286265 90.28666324 74.52443877 85.0246582 74.48291016 C83.92498718 74.49003525 82.82531616 74.49716034 81.69232178 74.50450134 C78.06032371 74.52378926 74.42890731 74.51550266 70.796875 74.5078125 C68.27531581 74.51771481 65.75376386 74.52965427 63.23222351 74.54354858 C57.27424385 74.57262776 51.31638526 74.58550044 45.35834903 74.58912504 C34.04720981 74.59617656 22.73624712 74.63142672 11.4252224 74.6825676 C7.70362225 74.6952047 3.98219171 74.69439045 0.26057434 74.69229126 C-2.00816989 74.69886808 -4.27691294 74.70587364 -6.5456543 74.71337891 C-7.58724197 74.70925491 -8.62882965 74.70513092 -9.70198059 74.70088196 C-10.64830353 74.7062648 -11.59462646 74.71164764 -12.56962585 74.7171936 C-13.39458903 74.71752909 -14.21955221 74.71786457 -15.06951427 74.71821022 C-17.29696271 74.79025361 -17.29696271 74.79025361 -19.06640625 76.96875 C-19.38403085 78.87881306 -19.38403085 78.87881306 -19.31640625 80.96875 C-19.3215625 81.67 -19.32671875 82.37125 -19.33203125 83.09375 C-19.2234614 85.2123169 -19.2234614 85.2123169 -17.06640625 86.96875 C-15.1338277 87.33706081 -15.1338277 87.33706081 -12.93359375 87.3828125 C-12.12792969 87.42148438 -11.32226562 87.46015625 -10.4921875 87.5 C-9.65042969 87.5309375 -8.80867188 87.561875 -7.94140625 87.59375 C-7.09191406 87.63242188 -6.24242187 87.67109375 -5.3671875 87.7109375 C-3.26728941 87.80531494 -1.16687734 87.88812586 0.93359375 87.96875 C0.3115046 89.22996146 -0.31258914 90.49018427 -0.9375 91.75 C-1.28482178 92.45189453 -1.63214355 93.15378906 -1.98999023 93.87695312 C-3.78861888 97.37222421 -4.99917037 99.35833649 -8.06640625 101.96875 C-16.8458657 103.3100123 -26.63494765 101.33104558 -35.41748047 100.36962891 C-37.92868983 100.09513997 -40.44075786 99.83006487 -42.953125 99.56640625 C-52.03501339 98.59999071 -61.05569204 97.47425048 -70.06640625 95.96875 C-71.9864803 77.15202427 -57.36554025 55.97622604 -46.06640625 41.96875 C-43.55594216 39.05240249 -40.99138299 36.21336536 -38.35546875 33.41015625 C-36.40913363 31.33428688 -34.57498172 29.21564349 -32.75390625 27.03125 C-25.53098997 18.76202341 -17.01310026 11.56344941 -8.50390625 4.65625 C-7.62883423 3.92668091 -7.62883423 3.92668091 -6.73608398 3.18237305 C-2.67130131 -0.04039775 -2.67130131 -0.04039775 0 0 Z " fill="#FAD271" transform="translate(291.06640625,139.03125)"/>
<path d="M0 0 C23.76 0 47.52 0 72 0 C72 21.45 72 42.9 72 65 C48.24 65 24.48 65 0 65 C0 43.55 0 22.1 0 0 Z " fill="#E59A6B" transform="translate(105,227)"/>
<path d="M0 0 C10.02119067 6.53886493 16.98706373 15.30360181 21.26171875 26.4921875 C21.26171875 27.8121875 21.26171875 29.1321875 21.26171875 30.4921875 C20.66703293 30.49805374 20.07234711 30.50391998 19.4596405 30.50996399 C13.2790112 30.57381872 7.09890645 30.65821743 0.91870117 30.75463867 C-1.38884574 30.78792606 -3.69647482 30.81594599 -6.00415039 30.83862305 C-9.31822787 30.87209858 -12.6315497 30.92441148 -15.9453125 30.98046875 C-17.49699883 30.99005363 -17.49699883 30.99005363 -19.08003235 30.99983215 C-20.04080185 31.01962631 -21.00157135 31.03942047 -21.99145508 31.05981445 C-22.83750809 31.07091751 -23.6835611 31.08202057 -24.55525208 31.09346008 C-26.78301072 31.34847149 -26.78301072 31.34847149 -28.50793457 32.69384766 C-30.16672353 35.11842142 -30.13587477 36.76956175 -30.1706543 39.69799805 C-30.19044846 40.75887131 -30.21024261 41.81974457 -30.2306366 42.9127655 C-30.24022148 44.62850517 -30.24022148 44.62850517 -30.25 46.37890625 C-30.2679512 47.55105179 -30.2859024 48.72319733 -30.30439758 49.93086243 C-30.35864779 53.68043401 -30.39244427 57.42987724 -30.42578125 61.1796875 C-30.45894124 63.71941896 -30.49342965 66.25913345 -30.52929688 68.79882812 C-30.61438279 75.02983282 -30.68267034 81.26085383 -30.73828125 87.4921875 C-32.1821991 87.1813257 -33.62552857 86.86773004 -35.06860352 86.55297852 C-35.87241959 86.37863785 -36.67623566 86.20429718 -37.50440979 86.02467346 C-48.08814021 83.50183901 -56.91022787 75.81393068 -63.11328125 67.1171875 C-64.02607534 65.5975928 -64.90191361 64.05514952 -65.73828125 62.4921875 C-66.15078125 61.74195312 -66.56328125 60.99171875 -66.98828125 60.21875 C-71.68519742 49.87901093 -71.71654933 34.96115306 -68.11328125 24.2421875 C-61.49343797 9.59057632 -51.6589206 1.29332776 -36.90625 -4.6484375 C-24.87043648 -7.91339308 -10.80386352 -5.94906037 0 0 Z " fill="#EE5F68" transform="translate(351.73828125,49.5078125)"/>
<path d="M0 0 C1.12721466 -0.0112793 2.25442932 -0.02255859 3.415802 -0.03417969 C4.64813568 -0.02608276 5.88046936 -0.01798584 7.15014648 -0.00964355 C9.10185257 -0.02015747 9.10185257 -0.02015747 11.09298706 -0.03088379 C14.65917239 -0.0491153 18.22489471 -0.04205071 21.7910881 -0.02936745 C25.52349849 -0.01923872 29.2558693 -0.02863276 32.98828125 -0.03491211 C39.2561759 -0.04218892 45.52388202 -0.03260007 51.79174805 -0.0135498 C59.03778855 0.00821918 66.28337886 0.00116782 73.52940845 -0.02085543 C79.75119537 -0.0390086 85.97284677 -0.04156821 92.1946516 -0.03110075 C95.91045193 -0.02486529 99.62604067 -0.0240314 103.34182739 -0.0372467 C107.48393405 -0.05094926 111.62526489 -0.03195704 115.76733398 -0.00964355 C117.6158345 -0.02178894 117.6158345 -0.02178894 119.50167847 -0.03417969 C120.62889313 -0.02290039 121.75610779 -0.01162109 122.91748047 0 C123.8967601 0.0015081 124.87603973 0.0030162 125.88499451 0.00457001 C129.21024491 0.65491134 130.41611581 1.84949845 132.45874023 4.50793457 C132.80573343 10.40681888 130.17145654 14.02284909 126.54077148 18.36340332 C118.008037 27.15227993 108.1522555 29.71881035 96.22045898 29.9119873 C92.52883045 29.94968302 88.83802017 29.94900251 85.14624023 29.94152832 C83.16666486 29.94609651 81.18709106 29.95140397 79.20751953 29.95741272 C75.07211842 29.96631504 70.93691073 29.96395295 66.80151367 29.95397949 C61.52261073 29.94248371 56.24437613 29.96272559 50.96556091 29.99189663 C46.88183407 30.01030841 42.79826602 30.00995642 38.71450806 30.00425911 C36.7690029 30.00410656 34.82348653 30.0100958 32.87802124 30.02255058 C18.40059556 30.10220305 8.54475598 29.25007408 -2.33422852 18.81652832 C-9.06697646 11.77395481 -9.06697646 11.77395481 -10.10375977 6.82043457 C-8.78674501 1.40604058 -5.17348189 0.00796722 0 0 Z " fill="#7A717B" transform="translate(158.541259765625,305.4920654296875)"/>
<path d="M0 0 C0.86179367 -0.0066568 1.72358734 -0.0133136 2.61149597 -0.02017212 C4.43116124 -0.03027423 6.25086336 -0.0349899 8.07055664 -0.03466797 C10.83607991 -0.0390319 13.5999941 -0.07535064 16.36523438 -0.11328125 C18.1393175 -0.11915202 19.91340815 -0.12311967 21.6875 -0.125 C22.91446342 -0.14655655 22.91446342 -0.14655655 24.16621399 -0.16854858 C30.8047773 -0.11645133 36.00564137 1.71492333 41.06640625 6.08203125 C41.73542969 6.91927734 41.73542969 6.91927734 42.41796875 7.7734375 C43.11019531 8.60681641 43.11019531 8.60681641 43.81640625 9.45703125 C48.14850821 16.09314923 47.41049219 23.18742064 47.41796875 30.8359375 C47.44246094 32.15464844 47.46695313 33.47335937 47.4921875 34.83203125 C47.49605469 36.10175781 47.49992187 37.37148438 47.50390625 38.6796875 C47.51212402 39.83662109 47.5203418 40.99355469 47.52880859 42.18554688 C46.92619921 46.09312049 45.83606101 47.56378269 43.04296875 50.3359375 C40.15917969 50.97085571 40.15917969 50.97085571 36.77734375 50.98291016 C35.50922852 50.99867096 34.24111328 51.01443176 32.93457031 51.03067017 C31.55402761 51.02172035 30.17349285 51.01146535 28.79296875 51 C27.37336817 51.00336953 25.95377041 51.0082233 24.53417969 51.01449585 C21.56156906 51.02186097 18.58971056 51.01117497 15.6171875 50.98779297 C11.81016171 50.95930336 8.00489816 50.97570956 4.19793701 51.00565529 C1.26728072 51.02373922 -1.66295897 51.01796567 -4.59362793 51.00501633 C-5.99703175 51.00168524 -7.40047363 51.00575909 -8.80383301 51.01741409 C-10.76634988 51.03013674 -12.72899969 51.00729998 -14.69140625 50.98291016 C-15.80741211 50.97893219 -16.92341797 50.97495422 -18.07324219 50.97085571 C-20.95703125 50.3359375 -20.95703125 50.3359375 -23.31628418 47.98942566 C-25.34705176 44.70517922 -25.47303539 42.63010734 -25.48828125 38.78515625 C-25.4934375 37.52896484 -25.49859375 36.27277344 -25.50390625 34.97851562 C-25.48070312 33.02075195 -25.48070312 33.02075195 -25.45703125 31.0234375 C-25.4725 29.72986328 -25.48796875 28.43628906 -25.50390625 27.10351562 C-25.46943709 18.68011474 -24.85922304 12.85794052 -19.2109375 6.3125 C-18.65277344 5.86648438 -18.09460938 5.42046875 -17.51953125 4.9609375 C-16.96394531 4.49945313 -16.40835938 4.03796875 -15.8359375 3.5625 C-10.66551169 0.18721163 -5.99281962 0.01618582 0 0 Z " fill="#010000" transform="translate(208.95703125,363.6640625)"/>
<path d="M0 0 C23.76 0 47.52 0 72 0 C72 21.45 72 42.9 72 65 C48.24 65 24.48 65 0 65 C0 43.55 0 22.1 0 0 Z M8 1 C9.91333269 16.30666153 17.03251036 29.17204703 29 39 C42.60588549 48.38463505 54.25678328 51 71 51 C71 34.5 71 18 71 1 C50.21 1 29.42 1 8 1 Z " fill="#DF7F45" transform="translate(105,227)"/>
<path d="M0 0 C7.88612958 5.16639791 12.93979685 12.09306725 16 21 C16.1484375 23.859375 16.1484375 23.859375 16 26 C14.86304688 25.93039063 13.72609375 25.86078125 12.5546875 25.7890625 C2.62169213 25.37419735 -4.00423979 26.28006891 -13.0234375 30.64453125 C-17.2768114 32.58143511 -19.39050145 32.84507473 -24 32 C-26.65748957 30.85760357 -29.17822747 29.6026149 -31.703125 28.19140625 C-36.43528436 25.73679978 -41.01276807 25.87735511 -46.25 25.9375 C-46.99507813 25.94201172 -47.74015625 25.94652344 -48.5078125 25.95117188 C-50.3385764 25.96290754 -52.16929873 25.9808415 -54 26 C-53.68719124 16.14652398 -49.78160432 10.41988712 -42.75 3.6875 C-30.54796457 -6.46735008 -14.15128337 -6.78158904 0 0 Z " fill="#E2986A" transform="translate(124,73)"/>
<path d="M0 0 C23.1 0 46.2 0 70 0 C68.38524539 9.68852765 63.81724763 16.95939956 56 23 C46.09256543 28.53005004 36.09599823 31.04646071 24.83203125 28.19921875 C14.708149 24.38802893 6.90960168 17.81849997 1.83984375 8.23828125 C1 6 1 6 0 0 Z " fill="#FBD370" transform="translate(150,450)"/>
<path d="M0 0 C23.1 0 46.2 0 70 0 C66.88452465 10.38491785 63.06932995 18.00712903 54 24 C45.06805508 28.38197298 35.11872473 30.96835798 25.2734375 28.24609375 C14.98240175 24.28202409 6.79046207 18.36035957 2.0625 8.25 C0.73149375 5.18568979 0 3.35585142 0 0 Z " fill="#FBD472" transform="translate(401,450)"/>
<path d="M0 0 C0.33 0 0.66 0 1 0 C1.01981934 0.59425781 1.03963867 1.18851562 1.06005859 1.80078125 C1.15623993 4.53424419 1.26553557 7.26703803 1.375 10 C1.4059375 10.93457031 1.436875 11.86914062 1.46875 12.83203125 C2.13387905 28.68427353 8.28566875 41.92850313 17 55 C17.99 54.505 17.99 54.505 19 54 C23 59.625 23 59.625 23 63 C23.58265625 63.26554687 24.1653125 63.53109375 24.765625 63.8046875 C27.06611001 65.03536654 28.77511875 66.42660213 30.75 68.125 C44.97332706 79.29380928 61.9690734 84.70139523 79.94824219 84.32202148 C86.57015544 84.36005545 90.15474674 86.57727358 95 91 C95.66 90.67 96.32 90.34 97 90 C97 95.61 97 101.22 97 107 C95.741875 106.175 94.48375 105.35 93.1875 104.5 C92.34832031 103.95988281 91.50914062 103.41976562 90.64453125 102.86328125 C88 101 88 101 85.76171875 98.85546875 C78.49875369 92.25817642 71.91266656 92.31508453 62.55883789 92.21826172 C46.50055125 92.03318935 32.02365265 85.66481519 20 75 C19.1028125 74.20851563 18.205625 73.41703125 17.28125 72.6015625 C5.44970902 61.51761889 -3.54693952 46.15353304 -4.23828125 29.62890625 C-4.46526345 18.99016663 -3.73648305 10.07515966 0 0 Z " fill="#EA343E" transform="translate(37,77)"/>
<path d="M0 0 C1.30582031 -0.01998047 2.61164063 -0.03996094 3.95703125 -0.06054688 C5.21902344 -0.05990234 6.48101562 -0.05925781 7.78125 -0.05859375 C9.49924805 -0.06137329 9.49924805 -0.06137329 11.25195312 -0.06420898 C16.01329452 0.67125077 19.16180073 2.91472153 22.3125 6.5 C24.81650794 10.58548664 25.10765286 14.77312241 24.5 19.4375 C23.15128776 23.32949819 21.34053689 25.921716 17.77148438 28.11181641 C14.19088949 29.56275896 11.6307671 29.82456442 7.78125 29.8359375 C6.51925781 29.83980469 5.25726563 29.84367187 3.95703125 29.84765625 C2.65121094 29.83605469 1.34539062 29.82445312 0 29.8125 C-1.30582031 29.82410156 -2.61164063 29.83570313 -3.95703125 29.84765625 C-5.21902344 29.84378906 -6.48101562 29.83992188 -7.78125 29.8359375 C-9.49924805 29.83086182 -9.49924805 29.83086182 -11.25195312 29.82568359 C-16.19208582 29.23527387 -19.4461026 27.57684854 -22.8125 23.9375 C-25.64070151 19.74757183 -25.98995201 16.41867874 -25.5 11.4375 C-20.51949401 -0.26239554 -11.4631668 -0.06223832 0 0 Z " fill="#2ED5E3" transform="translate(432.5,197.5625)"/>
<path d="M0 0 C1.12839546 0.53168541 1.12839546 0.53168541 2.27958679 1.07411194 C13.55639062 5.78657846 24.18784566 5.68012421 36.26953125 5.55859375 C38.40272227 5.55433371 40.53591794 5.55201396 42.66911316 5.55152893 C47.11450584 5.54539915 51.55938761 5.52286638 56.00463867 5.48706055 C61.68469025 5.4416536 67.36428304 5.42702454 73.0444994 5.42332363 C77.43957481 5.41888399 81.83455538 5.40356281 86.22958946 5.3844471 C88.32383133 5.37561119 90.41808312 5.36885896 92.51233864 5.36428642 C95.4404442 5.35518446 98.36814753 5.33274595 101.29614258 5.30639648 C102.1488121 5.30573181 103.00148163 5.30506714 103.87998962 5.30438232 C109.51106266 5.23489105 114.5360903 4.37646456 120 3 C120.495 6.96 120.495 6.96 121 11 C109.4184564 14.16366512 98.43047848 14.47407926 86.5078125 14.46875 C84.54832752 14.47587169 82.58884458 14.48357353 80.62936401 14.49182129 C76.54305204 14.50518673 72.45693303 14.50687057 68.37060547 14.50097656 C63.17748484 14.49508406 57.98530022 14.52569144 52.79236031 14.56609344 C48.75128335 14.59215061 44.71042655 14.59483173 40.66927719 14.59120178 C38.75662762 14.5928758 36.84396593 14.60234914 34.9314003 14.62034607 C22.19186977 14.72706945 8.97071152 14.31380768 -2 7 C-1.125 2.25 -1.125 2.25 0 0 Z " fill="#E3414B" transform="translate(157,343)"/>
<path d="M0 0 C0.68348007 0.01953232 1.36696014 0.03906464 2.07115173 0.05918884 C2.78705978 0.06152023 3.50296783 0.06385162 4.24057007 0.06625366 C5.74761443 0.07596023 7.254624 0.09767655 8.76133728 0.13072205 C11.06372781 0.18020699 13.36398 0.19220979 15.66685486 0.19786072 C17.13497647 0.2119458 18.60307961 0.22814989 20.07115173 0.24668884 C20.75665604 0.25205154 21.44216034 0.25741425 22.1484375 0.26293945 C25.73175087 0.35186202 28.52736003 0.52997915 31.50474548 2.61778259 C33.50474548 5.61778259 33.50474548 5.61778259 33.50474548 22.61778259 C18.98474548 22.61778259 4.46474548 22.61778259 -10.49525452 22.61778259 C-10.49525452 0.09852898 -10.49525452 0.09852898 0 0 Z " fill="#2CD0DE" transform="translate(208.49525451660156,377.38221740722656)"/>
<path d="M0 0 C1.39175697 -0.00956978 1.39175697 -0.00956978 2.81163025 -0.01933289 C3.8116658 -0.02044571 4.81170135 -0.02155853 5.84204102 -0.02270508 C6.87152359 -0.02603348 7.90100616 -0.02936188 8.96168518 -0.03279114 C11.13965406 -0.03785529 13.31763071 -0.04019962 15.49560547 -0.04003906 C18.82931278 -0.04222542 22.16268915 -0.06038633 25.49633789 -0.0793457 C27.61157113 -0.08227973 29.72680595 -0.08426446 31.84204102 -0.08520508 C32.84005234 -0.09239059 33.83806366 -0.09957611 34.86631775 -0.10697937 C35.79730789 -0.10390274 36.72829803 -0.10082611 37.6875 -0.09765625 C38.91302834 -0.09979378 38.91302834 -0.09979378 40.16331482 -0.10197449 C42.67506959 0.17462462 44.27473619 0.80545647 46.40844727 2.14526367 C47.99615198 5.32067311 47.81945029 8.68716927 47.40844727 12.14526367 C45.86506635 14.32002769 44.77179453 14.96359004 42.40844727 16.14526367 C40.8934527 16.26016907 39.37365708 16.3146863 37.85449219 16.33813477 C36.43743233 16.36222916 36.43743233 16.36222916 34.991745 16.3868103 C30.66930834 16.4312363 26.34702559 16.472324 22.02441406 16.49536133 C19.74403684 16.51192463 17.46371161 16.53921932 15.18359375 16.57739258 C11.89759356 16.63213148 8.61281061 16.65403124 5.32641602 16.66870117 C4.30855515 16.69137054 3.29069427 16.71403992 2.24198914 16.73739624 C-2.52098516 16.72316948 -4.82871995 16.71205428 -8.74267578 13.80395508 C-10.99722731 10.56190224 -11.25051173 9.01664779 -10.59155273 5.14526367 C-7.97023549 0.52675233 -5.05623332 0.02361283 0 0 Z " fill="#100A07" transform="translate(28.591552734375,211.854736328125)"/>
<path d="M0 0 C0.33 0 0.66 0 1 0 C0.96519531 1.08796875 0.93039062 2.1759375 0.89453125 3.296875 C0.55802248 18.10156989 3.17106704 30.20209122 11 43 C12.64885557 44.68428943 14.31171914 46.35523154 16 48 C16 48.66 16 49.32 16 50 C16.55429687 50.25652344 17.10859375 50.51304688 17.6796875 50.77734375 C20.33307593 52.17550971 22.68561927 53.81852482 25.125 55.5625 C28.45091748 57.96731666 28.45091748 57.96731666 32 60 C32 47.13 32 34.26 32 21 C32.33 21 32.66 21 33 21 C33 37.83 33 54.66 33 72 C19.17807523 68.92846116 9.00853356 63.3787983 0.625 51.625 C-0.28779409 50.1054053 -1.16363236 48.56296202 -2 47 C-2.4125 46.24976563 -2.825 45.49953125 -3.25 44.7265625 C-8.01480321 34.23737767 -7.98659319 19.22382984 -4.125 8.4375 C-3.46029504 6.93822102 -2.75654142 5.45509973 -2 4 C-1.43925781 2.87271484 -1.43925781 2.87271484 -0.8671875 1.72265625 C-0.58101563 1.15417969 -0.29484375 0.58570312 0 0 Z " fill="#E8434C" transform="translate(288,65)"/>
<path d="M0 0 C2.0455021 0.94851912 4.06495503 1.95425554 6.0625 3 C13.77414976 6.77933827 20.66170166 7.29045093 29 6 C32.548196 4.6694265 35.80760903 3.10047084 39.1640625 1.34765625 C43.72616556 -0.82028529 47.18073442 -0.95595787 52.0390625 0.69140625 C53.72526316 1.3867121 55.36862686 2.18431343 57 3 C57 6.63 57 10.26 57 14 C33.24 14 9.48 14 -15 14 C-15 10.37 -15 6.74 -15 3 C-9.96218891 -0.10019144 -5.77371451 -1.12170056 0 0 Z " fill="#E29869" transform="translate(84,112)"/>
<path d="M0 0 C9.24 0 18.48 0 28 0 C28 10.17642558 24.83711769 19.27631101 18 27 C15.15384949 29.30661937 12.20114403 31.22482013 9 33 C8.35289062 33.38285156 7.70578125 33.76570313 7.0390625 34.16015625 C5 35 5 35 0 35 C0 23.45 0 11.9 0 0 Z " fill="#F5BEA9" transform="translate(335,94)"/>
<path d="M0 0 C0.80610718 -0.0038269 1.61221436 -0.00765381 2.44274902 -0.01159668 C4.14397432 -0.0143139 5.84524153 -0.0069659 7.54638672 0.00976562 C10.14775896 0.0311801 12.74636972 0.00995981 15.34765625 -0.015625 C17.00261025 -0.01298169 18.65756254 -0.00785663 20.3125 0 C21.47670471 -0.01214539 21.47670471 -0.01214539 22.66442871 -0.02453613 C26.24539117 0.03752252 28.26296006 0.23025848 31.14672852 2.43725586 C33.6901098 5.96541068 33.13044829 8.26346536 32.65625 12.53125 C31.26461727 14.68828073 30.38720066 15.28824012 27.98413086 16.0871582 C22.87973187 17.06092871 17.56940232 16.71714293 12.38452148 16.71655273 C10.22945401 16.71873914 8.0748989 16.73691506 5.91992188 16.75585938 C4.54166841 16.75879381 3.16341252 16.76077827 1.78515625 16.76171875 C0.53806885 16.76582764 -0.70901855 16.76993652 -1.99389648 16.77416992 C-6.39094695 16.45531086 -9.21120178 15.66379822 -12.34375 12.53125 C-13.02611074 5.48018899 -13.02611074 5.48018899 -10.83642578 2.43505859 C-7.36591073 -0.21558552 -4.19468783 -0.04376043 0 0 Z " fill="#100B07" transform="translate(43.34375,240.46875)"/>
<path d="M0 0 C23.1 0 46.2 0 70 0 C69.34 2.64 68.68 5.28 68 8 C46.22 8 24.44 8 2 8 C0 3 0 3 0 0 Z " fill="#F6C345" transform="translate(401,450)"/>
<path d="M0 0 C23.1 0 46.2 0 70 0 C69 6 69 6 67 8 C64.2918396 8.24050903 64.2918396 8.24050903 60.80615234 8.22705078 C59.50495453 8.22689972 58.20375671 8.22674866 56.86312866 8.22659302 C55.43739673 8.21637893 54.01166635 8.20594692 52.5859375 8.1953125 C51.13148187 8.19158295 49.67702373 8.1887357 48.2225647 8.18673706 C44.39201944 8.179096 40.56162554 8.15944357 36.73114014 8.1373291 C32.82338509 8.11688078 28.91560561 8.10773752 25.0078125 8.09765625 C17.33847262 8.07619802 9.66925751 8.04205651 2 8 C1.34 5.36 0.68 2.72 0 0 Z " fill="#F5C142" transform="translate(150,450)"/>
<path d="M0 0 C1.72476563 -0.0309375 1.72476563 -0.0309375 3.484375 -0.0625 C4.59039062 -0.06765625 5.69640625 -0.0728125 6.8359375 -0.078125 C8.35646729 -0.09214355 8.35646729 -0.09214355 9.90771484 -0.10644531 C13.02354467 0.30227989 14.38325807 1.08203194 16.625 3.25 C17.12109375 5.40625 17.12109375 5.40625 17.0625 7.75 C17.06121094 8.5234375 17.05992188 9.296875 17.05859375 10.09375 C16.50898317 12.82694856 15.84200438 13.57311066 13.625 15.25 C10.96118164 15.63818359 10.96118164 15.63818359 7.78515625 15.6484375 C6.63982422 15.65230469 5.49449219 15.65617187 4.31445312 15.66015625 C3.11755859 15.64855469 1.92066406 15.63695312 0.6875 15.625 C-0.50552734 15.63660156 -1.69855469 15.64820313 -2.92773438 15.66015625 C-4.07435547 15.65628906 -5.22097656 15.65242188 -6.40234375 15.6484375 C-7.45156006 15.64505371 -8.50077637 15.64166992 -9.58178711 15.63818359 C-12.73736541 15.19964068 -14.09696657 14.43926174 -16.375 12.25 C-17.77601724 8.79415748 -17.47396928 7.49506679 -16.0625 4 C-12.57174475 -1.68863819 -6.04998158 0.02694869 0 0 Z " fill="#0C0805" transform="translate(59.375,269.75)"/>
<path d="M0 0 C0.33 0.66 0.66 1.32 1 2 C1.87412033 1.98218979 1.87412033 1.98218979 2.76589966 1.96401978 C9.56590369 1.88742942 16.22798342 2.36017606 22.9921875 3.0234375 C24.10054962 3.12967438 25.20891174 3.23591125 26.3508606 3.34536743 C28.67555459 3.56988298 31.00000642 3.79691908 33.32421875 4.02636719 C36.88457777 4.37594039 40.44606633 4.71176711 44.0078125 5.046875 C46.27351867 5.26739682 48.53914676 5.48872261 50.8046875 5.7109375 C51.86823456 5.80998383 52.93178162 5.90903015 54.02755737 6.01107788 C55.01603668 6.11103058 56.00451599 6.21098328 57.02294922 6.31396484 C58.32339676 6.4405397 58.32339676 6.4405397 59.65011597 6.56967163 C62.08001885 7.01465365 63.86023233 7.78738895 66 9 C64.6875 11.5 64.6875 11.5 62 14 C53.23134084 15.35592319 43.42301135 13.36137087 34.64892578 12.40087891 C32.13771642 12.12638997 29.62564839 11.86131487 27.11328125 11.59765625 C18.03139286 10.63124071 9.01071421 9.50550048 0 8 C0 5.36 0 2.72 0 0 Z " fill="#F7C344" transform="translate(221,227)"/>
<path d="M0 0 C3.64603861 1.78581483 7.15820409 3.77024512 10.68359375 5.78125 C17.2047825 9.21229703 22.09429262 9.1263748 29.31835938 8.65820312 C33.62903757 8.5175199 36.17637977 8.68885256 39.56640625 11.51171875 C40.36949219 12.33285156 41.17257812 13.15398437 42 14 C37.5472197 18.4527803 30.74259413 17.35300923 24.84399414 17.39379883 C16.73855418 17.27920594 9.78449795 15.79311549 3.265625 10.625 C1.66313035 8.567476 1.29322873 6.86406016 0.8125 4.3125 C0.65394531 3.50425781 0.49539063 2.69601562 0.33203125 1.86328125 C0.22246094 1.24839844 0.11289062 0.63351562 0 0 Z " fill="#D77835" transform="translate(309,368)"/>
<path d="M0 0 C1.4296875 1.609375 1.4296875 1.609375 2.875 3.75 C7.26947843 9.86780331 12.28198449 12.86603743 19 16 C19 18.31 19 20.62 19 23 C11.29275333 21.5727321 3.72157385 18.60208304 -1.125 12.1875 C-3.31358019 9.63415645 -4.02817773 9.59163102 -7.25 9.1875 C-8.4875 9.125625 -9.725 9.06375 -11 9 C-11 6.69 -11 4.38 -11 2 C-3.375 0 -3.375 0 0 0 Z " fill="#E9424C" transform="translate(396,225)"/>
<path d="M0 0 C-0.32615181 7.50149157 -3.63182485 13.79070104 -9.0703125 18.97265625 C-14.23064421 23 -14.23064421 23 -18 23 C-18.87481237 17.45952163 -16.72975792 13.94126072 -13.859375 9.41015625 C-10.77253111 5.40893213 -5.40014397 0 0 0 Z " fill="#F8D3C6" transform="translate(361,103)"/>
<path d="M0 0 C5.37197517 0.50290831 10.42270338 4.37302977 15 7 C15.64195312 7.36609375 16.28390625 7.7321875 16.9453125 8.109375 C20.38028497 10.21523752 22.27671518 12.36195427 24 16 C24 16.66 24 17.32 24 18 C13.20171869 15.64401135 4.42737833 10.6787592 -5 5 C-2.75 2.4375 -2.75 2.4375 0 0 Z " fill="#F7C753" transform="translate(289,139)"/>
<path d="M0 0 C-0.64916463 6.00477279 -2.85795003 11.400781 -5 17 C-8.65316671 15.75023244 -9.78065836 15.32901247 -12 12 C-12.56551375 7.63746537 -12.49322651 5.70247412 -9.9375 2.0625 C-6.35134537 -0.45543836 -4.29107165 -0.4206933 0 0 Z " fill="#F7D06F" transform="translate(128,378)"/>
<path d="M0 0 C0.43570313 0.38671875 0.87140625 0.7734375 1.3203125 1.171875 C5.04999544 4.43332935 8.80975473 7.33348029 13 10 C13.99 10.66 14.98 11.32 16 12 C10.06 12 4.12 12 -2 12 C-2 8.37 -2 4.74 -2 1 C-1.34 0.67 -0.68 0.34 0 0 Z " fill="#E07F44" transform="translate(71,114)"/>
<path d="M0 0 C0.99 1.32 1.98 2.64 3 4 C3.96619313 5.19807948 4.94519953 6.38595276 5.9375 7.5625 C6.66259766 8.43068359 6.66259766 8.43068359 7.40234375 9.31640625 C9.26416076 11.37238228 9.26416076 11.37238228 13 14 C8.71 14 4.42 14 0 14 C0 9.38 0 4.76 0 0 Z " fill="#0ECEDE" transform="translate(199,385)"/>
<path d="M0 0 C0.33 0 0.66 0 1 0 C1.20625 1.010625 1.4125 2.02125 1.625 3.0625 C2.96058016 7.63500708 5.36301432 10.94018814 9 14 C11.65880615 15.3533132 14.11651226 16.1548398 17 17 C17 17.33 17 17.66 17 18 C12.34420212 17.88619161 8.31870494 17.72327389 4.5625 14.75 C0.89174371 10.81065179 0.05105911 8.55730298 -0.125 3.1875 C-0.063125 1.6096875 -0.063125 1.6096875 0 0 Z " fill="#0DBAC8" transform="translate(407,209)"/>
</svg>
